<svg width="53" height="52" viewBox="0 0 53 52" fill="none" xmlns="http://www.w3.org/2000/svg">
<path d="M39.1118 39.4306C42.2168 36.3256 44.1161 32.2173 44.4701 27.8405C44.8241 23.4636 43.6097 19.1036 41.0441 15.5399C38.4784 11.9763 34.7288 9.44144 30.4657 8.38866C26.2027 7.33588 21.7041 7.8338 17.7745 9.79341" stroke="#A1A1A1" stroke-width="3" stroke-miterlimit="16" stroke-linecap="round" stroke-linejoin="round"/>
<path d="M13.0816 12.6295C9.97656 15.7345 8.07725 19.8427 7.72325 24.2196C7.36926 28.5964 8.58366 32.9565 11.1493 36.5201C13.715 40.0838 17.4646 42.6186 21.7276 43.6714C25.9907 44.7242 30.4893 44.2263 34.4189 42.2667" stroke="#A1A1A1" stroke-width="3" stroke-miterlimit="16" stroke-linecap="round" stroke-linejoin="round"/>
<path d="M6.00014 12.6445L13.5741 12.1883L14.0303 19.7623" stroke="#A1A1A1" stroke-width="3" stroke-linecap="round" stroke-linejoin="round"/>
<path d="M33.6056 25.5318L22.2543 20.146L22.235 30.8767L33.6056 25.5318Z" stroke="#A1A1A1" stroke-width="3" stroke-linecap="round" stroke-linejoin="round"/>
<path d="M46.6378 38.1056L39.1871 39.5414L37.7513 32.0908" stroke="#A1A1A1" stroke-width="3" stroke-linecap="round" stroke-linejoin="round"/>
</svg>
