<svg width="47" height="51" viewBox="0 0 47 51" fill="none" xmlns="http://www.w3.org/2000/svg">
<circle cx="24" cy="30.0449" r="18.5" stroke="#A1A1A1" stroke-width="3"/>
<path d="M35.8062 21.6958L23.1634 30.6662" stroke="#A1A1A1" stroke-width="3" stroke-linecap="round" stroke-linejoin="round"/>
<path d="M22.2893 28.3575L18.1038 21.5485" stroke="#A1A1A1" stroke-width="3" stroke-linecap="round" stroke-linejoin="round"/>
<circle cx="23.9996" cy="30.0452" r="3.79178" transform="rotate(110.532 23.9996 30.0452)" fill="#A1A1A1"/>
<mask id="path-5-inside-1" fill="white">
<path d="M16.083 8.29417C17.0041 7.68449 17.2697 6.41673 16.4411 5.68631C15.4536 4.81587 14.2476 4.20931 12.9353 3.94236C10.9629 3.54114 8.91195 3.93988 7.23358 5.05084C5.55521 6.16181 4.38691 7.894 3.98569 9.86636C3.71874 11.1787 3.80593 12.5258 4.22143 13.7749C4.57009 14.823 5.84085 15.0738 6.76191 14.4641L11.4225 11.3791L16.083 8.29417Z"/>
</mask>
<path d="M16.083 8.29417C17.0041 7.68449 17.2697 6.41673 16.4411 5.68631C15.4536 4.81587 14.2476 4.20931 12.9353 3.94236C10.9629 3.54114 8.91195 3.93988 7.23358 5.05084C5.55521 6.16181 4.38691 7.894 3.98569 9.86636C3.71874 11.1787 3.80593 12.5258 4.22143 13.7749C4.57009 14.823 5.84085 15.0738 6.76191 14.4641L11.4225 11.3791L16.083 8.29417Z" stroke="#A1A1A1" stroke-width="6" mask="url(#path-5-inside-1)"/>
<mask id="path-6-inside-2" fill="white">
<path d="M31.7739 8.29417C30.8528 7.68449 30.5873 6.41673 31.4159 5.68631C32.4033 4.81587 33.6093 4.20931 34.9217 3.94236C36.894 3.54114 38.945 3.93988 40.6234 5.05084C42.3017 6.16181 43.47 7.894 43.8712 9.86636C44.1382 11.1787 44.051 12.5258 43.6355 13.7749C43.2868 14.823 42.0161 15.0738 41.095 14.4641L36.4345 11.3791L31.7739 8.29417Z"/>
</mask>
<path d="M31.7739 8.29417C30.8528 7.68449 30.5873 6.41673 31.4159 5.68631C32.4033 4.81587 33.6093 4.20931 34.9217 3.94236C36.894 3.54114 38.945 3.93988 40.6234 5.05084C42.3017 6.16181 43.47 7.894 43.8712 9.86636C44.1382 11.1787 44.051 12.5258 43.6355 13.7749C43.2868 14.823 42.0161 15.0738 41.095 14.4641L36.4345 11.3791L31.7739 8.29417Z" stroke="#A1A1A1" stroke-width="6" mask="url(#path-6-inside-2)"/>
</svg>
