<svg width="45" height="51" viewBox="0 0 45 51" fill="none" xmlns="http://www.w3.org/2000/svg">
<path d="M39.9057 20.1249C41.246 22.8103 42 25.8394 42 29.0447C42 40.0904 33.0457 49.0447 22 49.0447C10.9543 49.0447 2 40.0904 2 29.0447C2 21.5051 6.17202 14.9399 12.3334 11.5317" stroke="#A1A1A1" stroke-width="3" stroke-linecap="round"/>
<path d="M18.6679 18.4252C18.9941 15.1631 21.7941 13.2602 23.1533 12.7166C22.3583 9.38718 15.8161 7.70206 14.7149 6.64319C13.6137 5.58432 17.5508 5.00187 19.2045 5.37255C21.6609 5.92316 23.6376 7.53264 25.0071 8.63386C25.0353 7.36321 25.0748 2.98326 25.0071 2.40724C24.9224 1.68721 27.1672 2.40705 28.1837 4.56779C28.7694 5.81284 29.2567 8.42201 29.1155 9.81969C29.892 9.76321 32.1396 9.22511 34.5792 9.81969C38.0523 10.6661 43.532 13.984 42.9655 15.0293C42.4149 16.0452 40.9325 15.3675 38.137 14.3086C35.9007 13.4615 32.8568 14.3799 31.445 14.7328C31.6003 15.2552 31.9278 16.6435 31.9956 18.0175C32.0803 19.7349 31.2332 22.3567 30.0473 23.6697C28.8614 24.9827 28.5225 23.2038 28.1837 20.8319C27.9126 18.9344 26.6024 17.6977 25.9812 17.3165C25.5823 17.2783 24.3766 17.365 22.7455 18.0175C20.7067 18.833 18.2601 22.5028 18.6679 18.4252Z" stroke="#A1A1A1" stroke-width="3" stroke-linecap="round" stroke-linejoin="round"/>
<path d="M9.20605 19.7388L22 28.4922" stroke="#A1A1A1" stroke-width="3" stroke-linecap="round" stroke-linejoin="round"/>
<path d="M20.541 32.2017L15.603 38.4863" stroke="#A1A1A1" stroke-width="3" stroke-linecap="round" stroke-linejoin="round"/>
<circle cx="22.76" cy="29.1482" r="3.79178" fill="#A1A1A1"/>
</svg>
